PathFileType	4	(X/Y/Z)	 s11c0402.trc
DataRate	CameraRate	NumFrames	NumMarkers	Units	OrigDataRate	OrigDataStartFrame	OrigNumFrames
200	200	7	48	mm	200	251	2000
Frame#	Time	racr			lacr			c7			jug			rlel			rdr			llel			ldr			s2			lic			ric			lasi			rasi			rpsi			lpsi			rgt			lgt			rth1			rth2			rth3			rth4			rlfc			rmfc			rsh1			rsh2			rsh3			rsh4			rlmal			rcal			rtoe			rmt5			lth1			lth2			lth4			lth3			llfc			lmfc			llmal			lcal			lmt5			lsh1			lsh2			lsh3			lsh4			ltoe			SBIKE			LBIKE			RBIKE			
		X1	Y1	Z1	X2	Y2	Z2	X3	Y3	Z3	X4	Y4	Z4	X5	Y5	Z5	X6	Y6	Z6	X7	Y7	Z7	X8	Y8	Z8	X9	Y9	Z9	X10	Y10	Z10	X11	Y11	Z11	X12	Y12	Z12	X13	Y13	Z13	X14	Y14	Z14	X15	Y15	Z15	X16	Y16	Z16	X17	Y17	Z17	X18	Y18	Z18	X19	Y19	Z19	X20	Y20	Z20	X21	Y21	Z21	X22	Y22	Z22	X23	Y23	Z23	X24	Y24	Z24	X25	Y25	Z25	X26	Y26	Z26	X27	Y27	Z27	X28	Y28	Z28	X29	Y29	Z29	X30	Y30	Z30	X31	Y31	Z31	X32	Y32	Z32	X33	Y33	Z33	X34	Y34	Z34	X35	Y35	Z35	X36	Y36	Z36	X37	Y37	Z37	X38	Y38	Z38	X39	Y39	Z39	X40	Y40	Z40	X41	Y41	Z41	X42	Y42	Z42	X43	Y43	Z43	X44	Y44	Z44	X45	Y45	Z45	X46	Y46	Z46	X47	Y47	Z47	X48	Y48	Z48	
251	1.2550	700.662110	1415.307771	-48.691626	721.303478	1456.802951	-421.883776	667.033160	1558.404246	-238.552846	693.361897	1378.815910	-250.098856	574.427782	1166.261702	59.248449	751.246241	972.421477	-19.754602	574.844702	1173.796708	-519.996701	774.874153	942.968755	-430.102959	116.445251	1257.320223	-221.322133	317.077033	1296.753247	-434.039972	346.610117	1243.064300	-37.153203	351.082201	1217.763890	-403.667795	375.459502	1186.661139	-81.142278	170.403241	1325.523805	-166.002553	157.250967	1326.360209	-257.903560	252.370107	1091.248409	-30.185972	249.370322	1157.086591	-449.705440	287.984088	963.230733	-30.940964	332.026824	886.352937	-43.932882	332.968522	801.391273	-66.410593	367.109547	896.868153	-49.423207	360.782224	704.200884	-88.227088	356.335701	685.332419	-210.184856	308.152735	552.866025	-71.434329	305.673056	465.888784	-86.870529	261.799669	390.447526	-87.112130	331.718430	461.122022	-116.584720	215.738680	261.397581	-97.114381	151.430944	254.104947	-144.927163	426.546529	171.983158	-130.892906	351.375368	156.947236	-63.431468	373.272347	1067.514686	-469.316171	450.995896	1032.123130	-465.554323	474.313766	1058.028338	-454.449121	503.093746	958.707515	-468.154553	589.851893	861.767601	-448.494975	602.923522	845.795091	-316.152139	230.232292	636.933069	-417.135942	167.505133	658.097381	-381.276360	239.094345	461.486218	-440.672352	489.541056	796.090653	-463.822066	435.278330	731.530897	-445.713789	353.253953	699.310069	-439.764000	455.832196	708.691410	-423.384232	308.488055	395.371819	-371.221546	-203.931339	954.644277	-261.558107	1.515488	82.550117	-460.930176	-15.153736	80.983848	-62.321379	
252	1.2600	701.610860	1417.558639	-50.313663	721.853054	1456.378499	-424.609321	668.460476	1559.521270	-241.224226	694.487799	1380.058247	-251.942980	575.951415	1168.263210	57.737146	752.033856	972.618831	-20.320141	574.565713	1173.498454	-520.752233	774.753838	943.092843	-429.733598	117.902626	1259.240415	-220.564088	317.725215	1298.334646	-434.036982	349.109648	1244.873457	-37.487718	351.278379	1219.088941	-403.411972	376.929366	1188.997693	-81.815940	172.053904	1327.156299	-165.198605	158.650358	1328.092752	-257.074428	252.423989	1092.557301	-30.299580	250.537131	1159.469924	-449.645437	286.097393	964.013317	-31.143005	329.173183	886.637519	-44.031376	329.066142	801.657719	-66.788220	364.384904	896.695840	-49.656281	356.000599	704.450149	-88.800416	350.771969	685.554420	-211.023977	303.322610	553.257477	-71.829948	301.171463	466.199129	-87.132522	257.477601	390.743127	-87.325405	327.286807	461.548878	-116.748291	212.000817	261.418948	-97.189293	148.050193	255.654312	-145.095108	421.195450	167.316739	-131.184957	345.714843	153.895716	-63.597095	374.547121	1069.555929	-468.154004	452.470827	1034.597112	-464.352582	475.649357	1060.774957	-453.527029	504.885212	961.405232	-466.324772	592.507549	865.666317	-446.691206	605.325105	850.074769	-314.158160	233.920920	639.804073	-415.965393	170.362135	660.076320	-380.837756	245.323908	464.895806	-440.552513	492.938394	799.398717	-461.897592	438.765909	734.721858	-444.089436	356.784389	702.316961	-438.433807	459.317395	711.917074	-421.488456	315.709179	399.642787	-371.091004	-204.030123	954.640285	-261.647703	1.488763	82.582445	-460.920522	-15.171159	81.009532	-62.328064	
253	1.2650	702.574264	1419.791293	-51.913939	722.484095	1455.830729	-427.277287	669.913939	1560.299850	-243.725776	695.582430	1381.060499	-253.760881	577.561171	1170.104850	56.360398	752.978536	972.873806	-21.098662	574.427625	1173.153575	-521.494322	774.753351	943.410788	-429.331990	119.366345	1261.160203	-220.144297	318.519227	1300.023349	-434.173043	351.050541	1246.834695	-38.956959	351.551494	1220.588508	-403.115426	378.348008	1191.541525	-82.589963	174.639887	1328.765453	-165.330733	160.874938	1329.689261	-257.462405	252.653648	1094.081489	-30.390890	251.743205	1161.959789	-449.646533	284.463119	965.103038	-30.943777	326.567734	887.182094	-44.112800	325.439605	802.232908	-67.220281	361.948191	896.793848	-49.839668	351.549918	704.951658	-89.348354	345.387901	686.150987	-211.791520	298.727924	554.028336	-72.165609	296.820193	466.916750	-87.365609	253.341601	391.347752	-87.450486	322.959827	462.311556	-117.099640	208.503184	261.778277	-97.183516	144.747162	257.625149	-145.203189	415.757311	162.852710	-131.406870	339.980803	151.178805	-63.802118	375.751748	1071.723639	-467.016563	453.839211	1037.090229	-463.095340	476.939101	1063.537955	-452.684331	506.570946	964.153531	-464.445285	594.912366	869.461548	-444.922126	607.443768	854.533690	-312.120912	237.321970	642.200648	-414.903441	172.999087	661.757338	-380.384489	251.719735	467.963086	-440.385070	495.971679	802.631972	-460.014308	442.003364	737.797679	-442.463575	360.132946	704.980022	-437.177447	462.520125	715.029214	-419.686324	323.351196	404.132201	-370.633271	-204.073916	954.599837	-261.549973	1.477525	82.568940	-460.931742	-15.181348	81.012601	-62.338798	
254	1.2700	703.598820	1421.861378	-53.515962	723.137233	1455.137796	-429.767137	671.402891	1561.010726	-246.367419	696.660099	1381.953061	-255.566576	579.274367	1171.819493	55.059862	753.945716	973.057773	-22.009914	574.350292	1172.807851	-522.199785	774.863711	943.893289	-428.958140	120.668860	1263.594397	-219.681105	319.415898	1301.890678	-434.334948	353.541400	1249.177716	-39.304449	351.847066	1222.265213	-402.842278	379.661608	1193.860834	-83.407121	176.498013	1330.692365	-164.827232	161.718980	1331.891169	-256.687292	253.063393	1095.845888	-30.506748	252.931481	1164.649634	-449.665635	283.541174	966.575865	-30.441901	324.249323	887.986826	-44.086848	322.008776	803.097959	-67.279976	359.723619	897.270112	-50.040272	347.358908	705.642041	-89.859902	340.295895	687.093371	-212.587420	294.261738	554.989676	-72.400556	292.694438	467.983501	-87.524811	249.334682	392.112658	-87.604062	318.822621	463.252207	-117.217789	205.145621	262.406739	-97.172192	141.592992	259.993642	-145.284898	410.241191	158.708809	-131.497506	334.122160	148.580310	-64.048273	376.901610	1074.041354	-465.825352	455.133393	1039.811970	-461.881698	478.413278	1066.437488	-451.759970	508.176303	966.903030	-462.600948	597.204043	873.028511	-442.747958	609.297578	858.822983	-310.165380	240.744575	644.437514	-414.032958	175.616983	662.998141	-379.943570	258.074710	470.830514	-440.276690	498.738574	805.803698	-458.100313	445.029023	740.676231	-440.867728	363.305670	707.495654	-435.890613	465.515423	718.092585	-417.963502	330.816803	408.238644	-370.340803	-204.144753	954.612419	-261.617626	1.467925	82.591282	-460.943059	-15.125246	81.071031	-62.455661	
255	1.2750	704.644844	1423.822905	-55.199294	724.462534	1454.915255	-432.432088	672.934523	1561.560717	-249.072556	697.763480	1382.598278	-257.279106	581.096129	1173.346223	53.833165	754.957636	973.026094	-23.134569	574.298038	1172.402448	-522.922044	775.089379	944.478739	-428.705737	121.947138	1266.058723	-219.304928	320.392264	1303.787206	-434.488540	355.644919	1251.698614	-40.386222	352.175039	1224.031336	-402.563860	380.856224	1196.158169	-84.271942	178.304128	1332.878395	-164.447401	162.652086	1334.425386	-256.120726	253.627645	1097.698404	-30.713825	254.090449	1167.423349	-449.745432	282.375759	968.138416	-30.417186	322.208914	888.955189	-44.039073	318.866747	804.153111	-67.447495	357.587987	897.880632	-50.308240	343.501816	706.626526	-90.329760	335.526638	688.174628	-213.338400	290.207179	556.287579	-72.564506	288.748805	469.118747	-87.449709	245.577371	393.360241	-87.477249	314.888273	464.505476	-117.114399	201.863510	263.482372	-97.128390	138.852766	262.576468	-145.329631	404.526728	154.191523	-131.879953	328.271473	146.060742	-64.216821	377.992189	1076.441275	-464.701133	456.369313	1042.520877	-460.712753	479.615059	1069.392591	-450.865912	509.670362	969.712020	-460.746654	598.986368	876.746554	-441.030092	610.862122	863.044962	-308.346587	244.119043	646.327995	-413.202618	178.180260	663.880811	-379.412390	264.661926	473.448239	-439.953395	501.278216	809.030749	-456.260717	447.853012	743.491127	-439.346354	366.293208	709.848109	-434.719912	468.366519	721.045402	-416.289598	338.395305	412.093347	-369.774660	-204.214197	954.618944	-261.674260	1.465819	82.591884	-460.956466	-15.119432	81.103264	-62.479879	
256	1.2800	705.654198	1425.557747	-56.917667	725.119352	1454.110248	-434.649604	674.539615	1561.803353	-251.519971	698.801143	1383.143648	-258.918075	583.006387	1174.572302	52.624654	756.078536	972.814214	-24.420191	574.239282	1171.869833	-523.685829	775.452387	945.129965	-428.654683	123.150097	1268.845464	-219.066534	321.452716	1305.789073	-434.755268	357.880085	1254.169321	-40.833164	352.492416	1225.887413	-402.313843	382.009005	1198.304917	-85.132149	180.157370	1335.082949	-164.205053	163.693304	1336.848278	-255.708400	254.325159	1099.731709	-30.837661	255.244806	1170.330893	-449.781532	281.477517	969.870378	-30.319355	320.402958	890.119906	-43.990555	315.956242	805.338115	-67.246119	355.873667	898.754099	-50.581504	340.021859	707.694597	-90.613907	331.122631	689.428361	-213.971555	286.358947	557.657756	-72.576623	284.940161	470.594722	-87.463478	241.841188	394.902283	-87.029384	311.142459	465.942142	-117.029450	198.774498	264.649602	-96.997375	136.032921	265.652826	-145.230100	398.731957	149.862674	-132.197630	322.307561	143.914351	-64.465587	378.992120	1078.972266	-463.658447	457.507332	1045.388900	-459.626886	480.705031	1072.353366	-449.960042	511.043180	972.829661	-459.074916	600.572819	880.477426	-439.275333	612.185143	867.279957	-306.453504	247.401443	647.876744	-412.425014	180.653202	664.324023	-378.816603	271.275219	475.959472	-439.857027	503.755643	811.913276	-454.015575	450.452622	746.282598	-437.875127	369.124858	712.046993	-433.573288	471.042154	723.929134	-414.813857	346.103062	415.833537	-369.349739	-204.271125	954.628355	-261.751014	1.449631	82.608118	-460.957385	-15.212522	81.088062	-62.377418	
257	1.2850	706.799701	1427.133234	-58.565902	725.870334	1453.141894	-436.812020	676.259467	1561.973591	-253.887575	699.862420	1383.458449	-260.565359	584.966935	1175.736656	51.396002	757.246018	972.627256	-25.712783	574.081741	1171.342677	-524.482747	775.964772	945.916109	-428.889885	126.099128	1271.339606	-220.391943	322.552556	1307.797437	-434.983684	359.924051	1256.572105	-41.330495	352.815460	1227.808734	-402.157010	383.206198	1200.306519	-85.786014	182.010967	1337.505214	-164.142351	164.588145	1339.805789	-255.515428	255.152559	1101.925855	-30.922031	256.268260	1173.274567	-449.816282	280.864889	971.692716	-30.244227	318.905336	891.525737	-43.930309	313.346955	806.791314	-67.022946	354.352356	899.792986	-50.915784	336.587478	708.906881	-90.957128	327.105131	690.724564	-214.539809	282.648766	559.210611	-72.510485	281.376325	472.105816	-87.187618	238.109353	395.989695	-87.660282	307.580828	467.478531	-116.772979	195.926616	266.167600	-96.642413	133.611398	268.897751	-145.103442	392.747475	145.596648	-132.556429	316.269448	141.852687	-64.660398	379.914057	1081.581015	-462.720506	458.560435	1048.244100	-458.597948	481.678604	1075.364598	-449.092195	512.290934	975.903617	-457.488669	601.982298	884.134715	-437.650167	613.303580	871.416843	-304.780856	250.631415	649.106984	-411.619623	183.138716	664.386499	-378.103741	277.946713	478.212587	-439.686002	505.712553	815.072201	-452.315781	452.895773	748.980522	-436.467332	371.792404	714.103882	-432.469706	473.612152	726.769879	-413.342726	353.718751	419.483197	-369.165494	-204.323012	954.653022	-261.845031	1.451437	82.601782	-460.978899	-15.132446	81.147911	-62.511321	
